<?xml version="1.0" encoding="UTF-8" standalone="no"?> <svg xmlns="http://www.w3.org/2000/svg" viewBox="0 0 64 64"><g id="Layer_28" data-name="Layer 28"><path d="M18.13,47a6.39,6.39,0,1,0-7.78,0,11.5,11.5,0,0,0-7.3,8.06,1,1,0,0,0,.25,1,14.69,14.69,0,0,0,21.93,0,1,1,0,0,0,.22-.9A11.48,11.48,0,0,0,18.13,47ZM9.85,42a4.39,4.39,0,1,1,4.41,4.39h0A4.4,4.4,0,0,1,9.85,42Zm4.39,17a12.69,12.69,0,0,1-9.13-3.88,9.5,9.5,0,0,1,9.1-6.77h.06a9.5,9.5,0,0,1,9.1,6.78A12.72,12.72,0,0,1,14.24,59Z"/><path d="M61,55.16A11.48,11.48,0,0,0,53.65,47a6.39,6.39,0,1,0-7.78,0,11.5,11.5,0,0,0-7.3,8.06,1,1,0,0,0,.25,1,14.69,14.69,0,0,0,21.93,0A1,1,0,0,0,61,55.16ZM45.37,42a4.39,4.39,0,1,1,4.41,4.39h0A4.4,4.4,0,0,1,45.37,42Zm4.39,17a12.67,12.67,0,0,1-9.13-3.88,9.5,9.5,0,0,1,9.1-6.77h.06a9.5,9.5,0,0,1,9.1,6.78A12.72,12.72,0,0,1,49.76,59Z"/><path d="M21.07,23.55A14.68,14.68,0,0,0,43,23.5a1,1,0,0,0,.22-.9,11.52,11.52,0,0,0-7.32-8.15,6.38,6.38,0,1,0-7.78,0,11.48,11.48,0,0,0-7.3,8.05A1,1,0,0,0,21.07,23.55ZM27.61,9.39A4.39,4.39,0,1,1,32,13.78h0A4.39,4.39,0,0,1,27.61,9.39ZM32,15.78H32a9.51,9.51,0,0,1,9.1,6.78,12.68,12.68,0,0,1-18.26,0A9.53,9.53,0,0,1,32,15.78Z"/><path d="M40.86,43a1,1,0,0,0,.89-.56,1,1,0,0,0,.11-.44,1,1,0,0,0-.56-.9L33,36.94v-6a1,1,0,0,0-2,0v6l-8.3,4.12a1,1,0,1,0,.89,1.79L32,38.68l8.41,4.17A1.06,1.06,0,0,0,40.86,43Z"/></g></svg>